inDegrees=no
num_controls=7
num_derivatives=13
num_iterations=79
num_multipliers=7
num_parameters=0
num_slacks=7
num_states=26
objective=0.542966
objective_accelerations=0.061378
objective_balance=0.003349
objective_effort=0.046873
objective_height=0.422175
objective_ligament=0.009190
solver_duration=843.669925
status=Solve_Succeeded
success=true
DataType=double
version=3
OpenSimVersion=4.5
endheader
time	/jointset/ground_pelvis/pelvis_tilt/value	/jointset/ground_pelvis/pelvis_tx/value	/jointset/ground_pelvis/pelvis_ty/value	/jointset/hip_r/hip_flexion_r/value	/jointset/hip_r/hip_adduction_r/value	/jointset/hip_r/hip_rotation_r/value	/jointset/back/lumbar_extension/value	/jointset/patellofemoral_r/patellar_flexion_r/value	/jointset/knee_r/knee_flexion_r/value	/jointset/knee_r/knee_adduction_r/value	/jointset/knee_r/knee_rotation_r/value	/jointset/ankle_r/ankle_angle_r/value	/jointset/subtalar_r/subtalar_angle_r/value	/jointset/ground_pelvis/pelvis_tilt/speed	/jointset/ground_pelvis/pelvis_tx/speed	/jointset/ground_pelvis/pelvis_ty/speed	/jointset/hip_r/hip_flexion_r/speed	/jointset/hip_r/hip_adduction_r/speed	/jointset/hip_r/hip_rotation_r/speed	/jointset/back/lumbar_extension/speed	/jointset/patellofemoral_r/patellar_flexion_r/speed	/jointset/knee_r/knee_flexion_r/speed	/jointset/knee_r/knee_adduction_r/speed	/jointset/knee_r/knee_rotation_r/speed	/jointset/ankle_r/ankle_angle_r/speed	/jointset/subtalar_r/subtalar_angle_r/speed	/forceset/tau_hip_flexion_r	/forceset/tau_hip_adduction_r	/forceset/tau_hip_rotation_r	/forceset/tau_knee_flexion_r	/forceset/tau_ankle_angle_r	/forceset/tau_subtalar_angle_r	/forceset/tau_lumbar_extension	lambda_cid13_p0	lambda_cid14_p0	lambda_cid14_p1	lambda_cid14_p2	lambda_cid14_p3	lambda_cid14_p4	lambda_cid14_p5	/jointset/ground_pelvis/pelvis_tilt/accel	/jointset/ground_pelvis/pelvis_tx/accel	/jointset/ground_pelvis/pelvis_ty/accel	/jointset/hip_r/hip_flexion_r/accel	/jointset/hip_r/hip_adduction_r/accel	/jointset/hip_r/hip_rotation_r/accel	/jointset/back/lumbar_extension/accel	/jointset/patellofemoral_r/patellar_flexion_r/accel	/jointset/knee_r/knee_flexion_r/accel	/jointset/knee_r/knee_adduction_r/accel	/jointset/knee_r/knee_rotation_r/accel	/jointset/ankle_r/ankle_angle_r/accel	/jointset/subtalar_r/subtalar_angle_r/accel	gamma_cid13_p0	gamma_cid14_p0	gamma_cid14_p1	gamma_cid14_p2	gamma_cid14_p3	gamma_cid14_p4	gamma_cid14_p5
1	-0.332818001639498	-0.0204479280060959	0.6125563053671995	1.618507589176374	-0.2263184717947325	-0.09539418727835718	-0.4362754724756003	1.511230497165438	1.511230497165425	-0.1638749722024896	0.162497302769157	0.4363043115344036	0.1214852368267474	-0.002873629636413339	0.002332897039631163	0.01911851884644828	-0.04680171950054916	0.0008611973795591398	-0.002929529402511449	0.002383065733189845	-0.05635727419262552	-0.05635727419263119	0.0110571349888756	0.0033544858291657	-0.008270315503067267	-0.001921583241853101	-0.3128704464158176	0.02537080309624201	0.0002342039556334754	-0.5344652473117435	0.02786640738621675	0.004370040791528476	0.3217524160722824	-0.04302256307085835	-42.23458805839914	-9.459466930480199	6.494086203911245	17.89065671655996	-825.5252351142699	55.30882346588699	1.362102939938634	0.05791060234396215	2.173599792195652	-6.445818299902784	0.1642017685788339	-0.2216102889473833	-0.08356424525092598	-6.029571726242686	-6.029571726242644	1.185277141594848	0.2287906638583332	-1.116693474286291	-0.181244656830982	7.62060457078242e-09	1.476656991010381e-08	4.702235832692935e-08	6.869549605982426e-08	-7.599410418120666e-09	-7.974158259217025e-09	1.130090039465274e-07
1.01	-0.3327813102081392	-0.02042164287965887	0.612855712095617	1.617720489918344	-0.2263017266459698	-0.09543110531110255	-0.4362517746215986	1.510366044887088	1.510366044887093	-0.1637016707147931	0.1625418324158103	0.4361656416533634	0.1214566946108081	0.01000358126425977	0.002933249401084008	0.04072822929688216	-0.1103757126304458	0.00248772569440368	-0.004452830970474716	0.002694381150489648	-0.1165094849312616	-0.1165094849312538	0.02359990267666819	0.005544836430471927	-0.01947545327933234	-0.003791705394888716	-0.3134900271850563	0.02541312646431918	0.0003084134978704956	-0.5338334370231642	0.02752651464863801	0.004365604174309893	0.3224969545485246	-0.04303749669866425	-42.3394245455796	-9.471976381687202	6.487201539591364	17.75111151734838	-825.619850288931	55.2380774561493	1.219285517175323	0.06246179591663034	2.149464105834271	-6.276821486074327	0.1618812963233846	-0.1174912274751227	0.1391608462581886	-6.004494321462444	-6.004494321460194	1.288283129002655	0.2132038011064575	-1.124191948810958	-0.1905913777841902	1.520566511672487e-08	3.158905489892478e-08	9.654839798411333e-08	1.39204673506229e-07	-1.953742284579224e-08	-1.460726275335703e-08	2.316982416012313e-07
1.02	-0.3326220955973574	-0.02038908138103116	0.6133701774154058	1.6163049243957	-0.2262687156273509	-0.09548321658698246	-0.4362148273312325	1.508900780786594	1.508900780786653	-0.1634030402408166	0.1626080748770131	0.435914566790651	0.1214093120966943	0.02163100624668527	0.0035881714777646	0.06213023712223523	-0.1724949724220001	0.004114371344671878	-0.005968178008598992	0.005032953009315324	-0.1765196386214384	-0.1765196386214179	0.03612293222970256	0.007697048745402941	-0.03075131183614674	-0.005689642877714853	-0.3141096079544277	0.0254554498323751	0.0003826230402338308	-0.533201626734582	0.027186621911062	0.004361167557053361	0.3232414930246227	-0.04306164328981131	-42.45207355478657	-9.479423668144467	6.472164775383114	17.62796080719519	-825.8401272608324	55.20966194774076	1.112145756288706	0.06882454539004006	2.132059267179538	-6.154871632234672	0.1642252356634316	-0.2200193829796418	0.321887043053647	-6.001160316550561	-6.001160316550673	1.181329514643223	0.2211630065834026	-1.130837630395097	-0.1868077227888844	2.26324290316969e-08	4.533791638012931e-08	1.429319720678397e-07	2.061484850385607e-07	-2.641571031175861e-08	-2.506252974147332e-08	3.396618612783612e-07
1.03	-0.3323507080852496	-0.02034962935590697	0.6140978327909609	1.614273162961552	-0.2262194837786614	-0.09555061449486092	-0.4361471018487046	1.506836128829413	1.50683612882945	-0.1629793885433629	0.162695672089001	0.4355505043073499	0.1213427911582713	0.03264635966010215	0.004318001208119158	0.08338632874675113	-0.2338354353810036	0.005727366836705753	-0.00751661937018785	0.00858338935046871	-0.236386459087419	-0.2363864590873789	0.04860395431045933	0.009816719994676051	-0.0420613723482082	-0.007621806281254338	-0.3142198329915944	0.02546044353381273	0.0005536349034780212	-0.5323693753625023	0.02709556060316477	0.004321883139691131	0.3234434238801553	-0.04308577783636294	-42.45736354107595	-9.480881644744631	6.453516740512065	17.47197598054335	-825.5538991142176	55.16756579794814	1.096220573928104	0.07742064752436097	2.120200549052178	-6.12034131107802	0.1591796229050218	-0.1230159885182304	0.3823088055812435	-5.975804908390312	-5.975804908386956	1.280962606383183	0.2065917745976104	-1.131117155957013	-0.1974480161905894	3.005757767492434e-08	5.905541435615408e-08	1.892834801763267e-07	2.730559152860549e-07	-3.324236793117694e-08	-3.555679838769141e-08	4.475160358740873e-07
1.04	-0.3319691689509769	-0.0203024073413441	0.6150376123705481	1.611628655361268	-0.2261542533916212	-0.09563364871161682	-0.4360417346275443	1.504173536268219	1.504173536268172	-0.1624310318146933	0.1628043105315523	0.4350733358400275	0.1212567431124067	0.04366133067593778	0.005142169365498627	0.104555077930203	-0.2950442056737806	0.007314079005983071	-0.009095439762552822	0.0125613007290471	-0.2961077594241398	-0.2961077594240786	0.06106393845486065	0.01190529486392115	-0.05337250863406028	-0.009595064366976045	-0.3143300580282356	0.0254654372352604	0.0007246467668447265	-0.5315371239904034	0.02700449929518696	0.004282598722309384	0.3236453547361876	-0.04311960458603375	-42.47057624858457	-9.477383013598635	6.42683196160255	17.33250135341819	-825.3951627885417	55.16714841824976	1.112069276772026	0.08769223079550832	2.114590778966779	-6.128533098989741	0.1589685711119887	-0.226095189134939	0.407382050538058	-5.972056290698351	-5.972056290698178	1.177121927372167	0.214943730577958	-1.131052785152256	-0.1950266592251848	3.628625523876323e-08	7.1653943103528e-08	2.292236202820668e-07	3.311551386237094e-07	-4.102562870924305e-08	-4.303304345015957e-08	5.392854504762337e-07
1.05	-0.3314774619117262	-0.02024642050204144	0.6161885553349993	1.608372870429022	-0.2260733000717269	-0.09573280108955858	-0.4358942869992703	1.500914595589058	1.500914595589015	-0.1617583714148196	0.1629336487359671	0.4344830100949312	0.1211507260329216	0.05468139630094512	0.006076200041903446	0.1256103377849262	-0.3560758352237356	0.00887040960595121	-0.01074092007177188	0.01701673608739966	-0.35564202513285	-0.3556420251327863	0.07346334256146686	0.0139525264327574	-0.0646966278598409	-0.01161942960584601	-0.3142628463632293	0.0254840492602736	0.0009797190757208929	-0.5303492967482186	0.0270089360246789	0.004197701520068644	0.3237349697129672	-0.04316046371445482	-42.43095071509917	-9.485252787758101	6.402885613955217	17.11750782177566	-824.861400692109	55.1006516422644	1.097188429196813	0.09939887266001285	2.097506855118371	-6.08492132056445	0.1530927260590366	-0.1346245013406554	0.4779009509556397	-5.938367577135256	-5.938367577134735	1.270618985542833	0.1982445472270025	-1.13368784212871	-0.2077151594184857	4.247754308137124e-08	8.421750406250658e-08	2.68963405137721e-07	3.889791054954315e-07	-4.883878333601689e-08	-5.041497527563557e-08	6.305522163285808e-07
1.06	-0.3308755115714452	-0.02018046527865367	0.6175493535512703	1.604507880513801	-0.2259769579614727	-0.09584857828060248	-0.4356996296828968	1.497061461079574	1.497061461079535	-0.1609618631071488	0.1630831855914772	0.4337793238873899	0.1210241505604127	0.06570999087923149	0.007135846182520293	0.1465261282956974	-0.416885202276328	0.01039183707068795	-0.01242040236198833	0.02200323834465323	-0.4149465254886806	-0.4149465254886145	0.08583351999758616	0.0159450250892535	-0.07604460111911077	-0.01370674297275705	-0.3141956346981326	0.02550266128527778	0.001234791384701269	-0.5291614695060237	0.02701337275414769	0.004112804317799792	0.3238245846898215	-0.04321100532284115	-42.39937596363536	-9.488314224194578	6.371069892793542	16.9180667074099	-824.4582158983224	55.07470139686303	1.113775067427439	0.112815323638359	2.086696910176432	-6.084080599517471	0.1519879440655769	-0.2328955853345107	0.513595430317772	-5.926103220122199	-5.926103220122108	1.171276593274825	0.203997148110129	-1.135823591849231	-0.2076162848333081	4.725544111604625e-08	9.412454992413868e-08	3.003949158476896e-07	4.355070509540113e-07	-5.53801586380867e-08	-5.617980302630623e-08	6.99735869009752e-07
1.07	-0.3301633920835087	-0.02010325844584464	0.6191185033709536	1.600036273128119	-0.225865580738821	-0.09598158902008767	-0.4354521844999492	1.492616540756326	1.492616540756303	-0.1600420848723732	0.1632523518866326	0.4329619414036275	0.1208763495772671	0.07669781160436426	0.008329261981402551	0.1672697446115947	-0.4773621022068199	0.01187678988066016	-0.01419134073763938	0.02760295819884296	-0.4739876707374308	-0.4739876707373939	0.09811249204078264	0.01787454833911414	-0.0874453508402558	-0.01586898547435604	-0.3138411495040796	0.02544052834544174	0.001570113575477723	-0.5276708833076778	0.02715584864784993	0.004027671354702774	0.3237070141208133	-0.04327175290125924	-42.2961556216443	-9.470583182546036	6.326401673629238	16.65296887947402	-823.6378674061061	55.05629990679009	1.088889993453331	0.1261534871870428	2.063067886066387	-6.018350855719564	0.1457929671883338	-0.1505920246025725	0.6007342545993364	-5.885650371308529	-5.885650371312727	1.254749911469596	0.1855059085844828	-1.14421682172455	-0.2227493964673803	5.195815884178865e-08	1.03890291791231e-07	3.313844970818238e-07	4.814341442097643e-07	-6.185388610373607e-08	-6.18586146027851e-08	7.677448880116052e-07
1.08	-0.3293418735046313	-0.02001340769921045	0.6208940641325443	1.594962125509989	-0.225739545184488	-0.09613258895561459	-0.4351452273201142	1.487582702941778	1.487582702941765	-0.1589998084367485	0.1634404286132925	0.4320301481907444	0.1207064819363819	0.08758980906539714	0.009664628947552649	0.1878083166786128	-0.5373932487734822	0.01332350339961654	-0.01601824155016124	0.03390563771825875	-0.532730023748472	-0.5327300237484652	0.1103331601490725	0.01972711139542984	-0.09892674694048055	-0.01812007452173955	-0.3134866643099193	0.0253783954056099	0.001905435766255052	-0.5261802971093265	0.02729832454153113	0.00394253839160276	0.3235894435518967	-0.0433422038425635	-42.20117965238093	-9.448320846573575	6.274185964672167	16.40270184574974	-822.9519525409744	55.07674873927933	1.094610414607057	0.1412055570923499	2.045688060400606	-5.994929926751799	0.1443400858622804	-0.2440880727087841	0.6541873633626035	-5.8663447725802	-5.866344772580324	1.159615806293548	0.1886051094013862	-1.15195286766436	-0.2253855939901668	5.488022786333678e-08	1.09797535964967e-07	3.507510548162447e-07	5.116434751429443e-07	-6.57057085053219e-08	-6.568733928523015e-08	8.067539362176858e-07
